<svg width="240" height="53" viewBox="0 0 240 53" fill="none" xmlns="http://www.w3.org/2000/svg">
<path d="M28.3311 45.4316H30.5304V51.0493H31.4366V45.4316H33.6346V44.6348H28.3311V45.4316Z" fill="white"/>
<path d="M38.9934 48.2451C38.9934 48.9602 38.8368 49.4825 38.5222 49.8119C38.2077 50.1414 37.7606 50.3074 37.181 50.3074C36.6014 50.3074 36.1623 50.1427 35.8477 49.8119C35.5332 49.4825 35.3765 48.9602 35.3765 48.2451V44.6348H34.4609V48.2813C34.4609 49.2093 34.7019 49.915 35.1851 50.3985C35.667 50.8806 36.3296 51.1229 37.1729 51.1229C38.0163 51.1229 38.6856 50.8819 39.1648 50.3985C39.644 49.9164 39.8836 49.2106 39.8836 48.2813V44.6348H38.9948V48.2451H38.9934Z" fill="white"/>
<path d="M45.6989 48.8323C46.0965 48.6555 46.4017 48.3997 46.6145 48.0676C46.8287 47.7342 46.9358 47.3364 46.9358 46.8718C46.9358 46.4071 46.8287 46.008 46.6145 45.6719C46.4003 45.3358 46.0951 45.0786 45.6989 44.9019C45.3013 44.7251 44.8221 44.6367 44.2612 44.6367H41.7607V51.0512H42.6763V49.1001H44.2612C44.4018 49.1001 44.5383 49.0947 44.6682 49.0827L46.0469 51.0512H47.0455L45.5209 48.8992C45.5811 48.8778 45.6427 48.8591 45.6989 48.8336V48.8323ZM44.2331 48.3194H42.6763V45.4322H44.2331C44.8194 45.4322 45.2639 45.5581 45.5664 45.8085C45.8689 46.0589 46.0202 46.4138 46.0202 46.8718C46.0202 47.3297 45.8689 47.686 45.5664 47.9391C45.2639 48.1935 44.8194 48.3194 44.2331 48.3194Z" fill="white"/>
<path d="M50.3507 44.6348L47.4473 51.0493H48.391L49.0951 49.4463H52.5045L53.2086 51.0493H54.1697L51.2569 44.6348H50.3507ZM49.4163 48.7125L50.7991 45.5655L52.1819 48.7125H49.4163Z" fill="white"/>
<path d="M59.0612 48.8323C59.4588 48.6555 59.764 48.3997 59.9768 48.0676C60.191 47.7342 60.2981 47.3364 60.2981 46.8718C60.2981 46.4071 60.191 46.008 59.9768 45.6719C59.7626 45.3358 59.4574 45.0786 59.0612 44.9019C58.6636 44.7251 58.1844 44.6367 57.6236 44.6367H55.123V51.0512H56.0387V49.1001H57.6236C57.7641 49.1001 57.9006 49.0947 58.0305 49.0827L59.4092 51.0512H60.4078L58.8832 48.8992C58.9434 48.8778 59.005 48.8591 59.0612 48.8336V48.8323ZM57.5954 48.3194H56.0387V45.4322H57.5954C58.1817 45.4322 58.6262 45.5581 58.9287 45.8085C59.2312 46.0589 59.3825 46.4138 59.3825 46.8718C59.3825 47.3297 59.2312 47.686 58.9287 47.9391C58.6262 48.1935 58.1817 48.3194 57.5954 48.3194Z" fill="white"/>
<path d="M63.898 47.4297H61.4336V48.1903H63.898V47.4297Z" fill="white"/>
<path d="M64.7863 45.4316H67.1034V49.0325C67.1034 49.9003 66.7366 50.3342 66.0044 50.3342C65.7354 50.3342 65.4904 50.2686 65.2669 50.1373C65.0433 50.0061 64.8439 49.8186 64.6672 49.5736L64.1357 50.1963C64.3432 50.4949 64.6123 50.7252 64.9416 50.8832C65.2709 51.0413 65.6256 51.1216 66.0044 51.1216C66.6644 51.1216 67.1637 50.9448 67.5023 50.59C67.841 50.2364 68.011 49.7008 68.011 48.987V44.6348H64.7863V45.4316Z" fill="white"/>
<path d="M75.2048 45.4919C74.8969 45.1959 74.5355 44.9669 74.1245 44.8049C73.7122 44.6428 73.2625 44.5625 72.7739 44.5625C72.2853 44.5625 71.8248 44.6455 71.4085 44.8102C70.9922 44.975 70.6335 45.2053 70.3283 45.5026C70.0231 45.7985 69.7848 46.1454 69.6135 46.5418C69.4421 46.9395 69.3564 47.3734 69.3564 47.8434C69.3564 48.3135 69.4421 48.7473 69.6135 49.1451C69.7848 49.5428 70.0231 49.8896 70.3283 50.1856C70.6335 50.4815 70.9949 50.7119 71.4139 50.8779C71.8315 51.0426 72.2853 51.1257 72.7739 51.1257C73.2625 51.1257 73.7122 51.0453 74.1245 50.8833C74.5368 50.7213 74.8969 50.4923 75.2048 50.1963C75.5127 49.9004 75.7509 49.5535 75.9196 49.1571C76.0869 48.7594 76.1713 48.3228 76.1713 47.8461C76.1713 47.3694 76.0869 46.9328 75.9196 46.5364C75.7509 46.1387 75.514 45.7932 75.2048 45.4972V45.4919ZM75.0669 48.8223C74.9411 49.121 74.7671 49.3834 74.5449 49.6057C74.3213 49.8294 74.0589 50.0008 73.7578 50.124C73.4566 50.2472 73.1273 50.3075 72.7726 50.3075C72.4178 50.3075 72.0805 50.2459 71.7793 50.124C71.4768 50.0021 71.2131 49.8294 70.9869 49.6057C70.7606 49.3834 70.5853 49.121 70.4608 48.8223C70.335 48.5237 70.2734 48.1956 70.2734 47.8421C70.2734 47.4885 70.3363 47.1605 70.4608 46.8618C70.5853 46.5632 70.762 46.3021 70.9869 46.0784C71.2131 45.8548 71.4768 45.6834 71.7793 45.5602C72.0818 45.4383 72.4125 45.3767 72.7726 45.3767C73.1326 45.3767 73.4552 45.4383 73.7578 45.5602C74.0603 45.682 74.3227 45.8548 74.5449 46.0784C74.7671 46.3021 74.9424 46.5632 75.0669 46.8618C75.1914 47.1605 75.2543 47.4885 75.2543 47.8421C75.2543 48.1956 75.1914 48.5237 75.0669 48.8223Z" fill="white"/>
<path d="M81.3918 44.6348L79.3317 48.0188L77.2797 44.6348H76.2998L78.8458 48.8156V51.0493H79.7521V48.829L82.2994 44.6348H81.3918Z" fill="white"/>
<path d="M91.7514 44.6348L89.1116 49.141L86.4385 44.6348H85.6875V51.0493H86.567V46.4011L88.8841 50.2699H89.3057L91.6242 46.3716L91.6322 51.0493H92.5117L92.5023 44.6348H91.7514Z" fill="white"/>
<path d="M96.3683 44.6348L93.4648 51.0493H94.4086L95.1127 49.4463H98.5221L99.2262 51.0493H100.187L97.2745 44.6348H96.3683ZM95.4339 48.7125L96.8167 45.5655L98.1995 48.7125H95.4339Z" fill="white"/>
<path d="M100.884 45.4316H103.201V49.0325C103.201 49.9003 102.836 50.3342 102.102 50.3342C101.833 50.3342 101.588 50.2686 101.365 50.1373C101.141 50.0061 100.942 49.8186 100.765 49.5736L100.233 50.1963C100.441 50.4949 100.71 50.7252 101.039 50.8832C101.369 51.0413 101.723 51.1216 102.102 51.1216C102.762 51.1216 103.26 50.9448 103.6 50.59C103.939 50.2364 104.109 49.7008 104.109 48.987V44.6348H100.884V45.4316Z" fill="white"/>
<path d="M112.039 44.6348L109.401 49.141L106.728 44.6348H105.976V51.0493H106.855V46.4011L109.174 50.2699H109.594L111.912 46.3716L111.92 51.0493H112.8L112.79 44.6348H112.039Z" fill="white"/>
<path d="M119.202 48.2451C119.202 48.9602 119.046 49.4825 118.731 49.8119C118.417 50.1414 117.97 50.3074 117.39 50.3074C116.81 50.3074 116.371 50.1427 116.057 49.8119C115.742 49.4812 115.586 48.9602 115.586 48.2451V44.6348H114.67V48.2813C114.67 49.2093 114.911 49.915 115.394 50.3985C115.876 50.8806 116.539 51.1229 117.382 51.1229C118.225 51.1229 118.895 50.8819 119.374 50.3985C119.853 49.9164 120.093 49.2106 120.093 48.2813V44.6348H119.204V48.2451H119.202Z" fill="white"/>
<path d="M123.765 44.6348L120.861 51.0493H121.805L122.509 49.4463H125.919L126.623 51.0493H127.585L124.672 44.6348H123.766H123.765ZM122.83 48.7125L124.213 45.5655L125.596 48.7125H122.83Z" fill="white"/>
<path d="M132.121 47.96C131.892 47.8315 131.639 47.7284 131.361 47.648C131.082 47.569 130.806 47.4967 130.532 47.4324C130.258 47.3681 130.006 47.2972 129.777 47.2168C129.548 47.1378 129.362 47.0307 129.219 46.8967C129.076 46.7628 129.003 46.5821 129.003 46.3557C129.003 46.1669 129.057 45.9955 129.164 45.8428C129.271 45.6902 129.44 45.5683 129.673 45.4759C129.904 45.3835 130.201 45.338 130.561 45.338C130.848 45.338 131.145 45.3795 131.45 45.4612C131.755 45.5429 132.046 45.6768 132.32 45.8602L132.623 45.1277C132.354 44.9443 132.037 44.8037 131.67 44.7059C131.303 44.6081 130.934 44.5586 130.561 44.5586C129.999 44.5586 129.537 44.643 129.173 44.8104C128.809 44.9777 128.541 45.2014 128.367 45.4786C128.193 45.7571 128.106 46.0611 128.106 46.3906C128.106 46.72 128.176 47.0119 128.317 47.2289C128.457 47.4458 128.642 47.6186 128.871 47.7471C129.1 47.8757 129.353 47.9815 129.631 48.0632C129.91 48.1448 130.185 48.2172 130.46 48.2788C130.734 48.3404 130.987 48.4113 131.216 48.4944C131.445 48.5774 131.631 48.6859 131.774 48.8198C131.917 48.9537 131.99 49.1318 131.99 49.3514C131.99 49.5402 131.935 49.7103 131.825 49.8603C131.715 50.0103 131.544 50.1281 131.312 50.2125C131.081 50.2982 130.778 50.341 130.406 50.341C129.997 50.341 129.603 50.2714 129.224 50.1308C128.845 49.9902 128.533 49.8134 128.29 49.5992L127.951 50.3143C128.208 50.5526 128.559 50.7468 129.005 50.8968C129.45 51.0468 129.918 51.1218 130.406 51.1218C130.968 51.1218 131.433 51.0374 131.802 50.87C132.172 50.7026 132.445 50.479 132.622 50.2018C132.798 49.9232 132.887 49.6233 132.887 49.2992C132.887 48.9751 132.817 48.6885 132.676 48.4743C132.536 48.26 132.351 48.0899 132.122 47.9614L132.121 47.96Z" fill="white"/>
<path d="M135.138 44.6348H134.223V51.0493H135.138V44.6348Z" fill="white"/>
<path d="M138.309 51.9668H139.106L142.129 43.3359H141.331L138.309 51.9668Z" fill="white"/>
<path d="M148.925 46.4596C148.559 46.252 148.138 46.1476 147.662 46.1476C147.259 46.1476 146.891 46.24 146.559 46.4221C146.328 46.548 146.133 46.7221 145.968 46.935V44.25H145.089V51.0489H145.932V50.2789C146.1 50.5065 146.302 50.69 146.541 50.8239C146.875 51.01 147.248 51.1038 147.663 51.1038C148.14 51.1038 148.561 50.9993 148.927 50.7917C149.293 50.5842 149.583 50.2936 149.797 49.9213C150.011 49.549 150.117 49.1151 150.117 48.6196C150.117 48.1242 150.01 47.693 149.797 47.3234C149.583 46.9537 149.293 46.6658 148.927 46.4569L148.925 46.4596ZM149.012 49.5249C148.869 49.7847 148.674 49.9842 148.426 50.1249C148.178 50.2655 147.899 50.3351 147.588 50.3351C147.277 50.3351 147.006 50.2655 146.759 50.1249C146.512 49.9842 146.316 49.7847 146.173 49.5249C146.03 49.2651 145.958 48.9651 145.958 48.6223C145.958 48.2795 146.029 47.9728 146.173 47.7197C146.316 47.4666 146.512 47.2684 146.759 47.1292C147.007 46.9899 147.283 46.9189 147.588 46.9189C147.893 46.9189 148.178 46.9899 148.426 47.1292C148.674 47.2698 148.869 47.4666 149.012 47.7197C149.156 47.9728 149.228 48.2741 149.228 48.6223C149.228 48.9705 149.156 49.2651 149.012 49.5249Z" fill="white"/>
<path d="M152.953 50.0742L151.26 46.1934H150.344L152.486 51.0371L152.33 51.3799C152.209 51.6611 152.077 51.8566 151.937 51.9664C151.796 52.0762 151.62 52.1311 151.405 52.1311C151.241 52.1311 151.085 52.1003 150.938 52.0387C150.791 51.9771 150.657 51.8888 150.535 51.7736L150.159 52.4338C150.318 52.5811 150.507 52.6923 150.727 52.7686C150.946 52.8449 151.173 52.8824 151.404 52.8824C151.654 52.8824 151.883 52.8409 152.091 52.7592C152.298 52.6762 152.49 52.5382 152.664 52.3427C152.838 52.1472 152.994 51.878 153.135 51.5366L155.488 46.1947H154.627L152.95 50.0756L152.953 50.0742Z" fill="white"/>
<path d="M163.287 44.6348H157.983V45.4316H160.181V51.0493H161.089V45.4316H163.287V44.6348Z" fill="white"/>
<path d="M168.929 44.6348H167.931L166.152 47.0961L164.358 44.6348H163.314L165.576 47.7617L163.168 51.0493H164.221L166.118 48.4045L168.04 51.0493H169.094L166.67 47.7322L168.929 44.6348Z" fill="white"/>
<path d="M168.974 45.4316H171.172V51.0493H172.079V45.4316H174.277V44.6348H168.974V45.4316Z" fill="white"/>
<path d="M178.853 46.0724C179.081 45.8528 179.353 45.6814 179.668 45.5596C179.982 45.4377 180.322 45.3761 180.689 45.3761C181.056 45.3761 181.384 45.435 181.692 45.5542C182 45.6734 182.286 45.8609 182.548 46.118L183.116 45.5502C182.823 45.2207 182.465 44.973 182.044 44.8083C181.622 44.6436 181.158 44.5605 180.652 44.5605C180.146 44.5605 179.693 44.6409 179.278 44.8029C178.863 44.965 178.502 45.194 178.193 45.4899C177.885 45.7859 177.645 46.1327 177.474 46.5291C177.302 46.9268 177.217 47.3634 177.217 47.8388C177.217 48.3142 177.302 48.7521 177.474 49.1498C177.645 49.5475 177.883 49.893 178.189 50.189C178.494 50.4849 178.854 50.7139 179.269 50.876C179.684 51.038 180.139 51.1184 180.634 51.1184C181.085 51.1184 181.524 51.0501 181.949 50.9121C182.373 50.7742 182.744 50.572 183.061 50.3028V47.8013H182.182V49.885C182.017 49.9935 181.844 50.0805 181.664 50.1421C181.349 50.2493 181.021 50.3028 180.678 50.3028C180.312 50.3028 179.973 50.2412 179.661 50.1194C179.349 49.9975 179.08 49.8247 178.851 49.6011C178.622 49.3788 178.444 49.115 178.32 48.8123C178.194 48.5097 178.132 48.1843 178.132 47.8361C178.132 47.4879 178.195 47.1531 178.32 46.8505C178.444 46.5478 178.622 46.2867 178.851 46.0671L178.853 46.0724Z" fill="white"/>
<path d="M188.75 48.8323C189.147 48.6555 189.452 48.3997 189.665 48.0676C189.879 47.7342 189.985 47.3364 189.985 46.8718C189.985 46.4071 189.878 46.008 189.665 45.6719C189.451 45.3358 189.146 45.0786 188.75 44.9019C188.352 44.7251 187.873 44.6367 187.312 44.6367H184.812V51.0512H185.727V49.1001H187.312C187.453 49.1001 187.589 49.0947 187.719 49.0827L189.098 51.0512H190.096L188.572 48.8992C188.632 48.8778 188.693 48.8577 188.75 48.8336V48.8323ZM187.284 48.3194H185.727V45.4322H187.284C187.87 45.4322 188.315 45.5581 188.617 45.8085C188.92 46.0589 189.071 46.4138 189.071 46.8718C189.071 47.3297 188.92 47.686 188.617 47.9391C188.315 48.1935 187.87 48.3194 187.284 48.3194Z" fill="white"/>
<path d="M196.796 45.4919C196.486 45.1959 196.126 44.9669 195.715 44.8049C195.303 44.6428 194.853 44.5625 194.365 44.5625C193.876 44.5625 193.416 44.6455 192.999 44.8102C192.584 44.975 192.224 45.2053 191.919 45.5026C191.614 45.7985 191.376 46.1454 191.204 46.5418C191.033 46.9395 190.947 47.3734 190.947 47.8434C190.947 48.3135 191.033 48.7473 191.204 49.1451C191.376 49.5428 191.614 49.8896 191.919 50.1856C192.224 50.4815 192.586 50.7119 193.005 50.8779C193.422 51.0426 193.876 51.1257 194.365 51.1257C194.853 51.1257 195.303 51.0453 195.715 50.8833C196.128 50.7213 196.488 50.4923 196.796 50.1963C197.103 49.9004 197.342 49.5535 197.51 49.1571C197.678 48.7594 197.762 48.3228 197.762 47.8461C197.762 47.3694 197.678 46.9328 197.51 46.5364C197.342 46.1387 197.103 45.7932 196.796 45.4972V45.4919ZM196.658 48.8223C196.533 49.121 196.359 49.3834 196.136 49.6057C195.912 49.8294 195.65 50.0008 195.347 50.124C195.045 50.2459 194.717 50.3075 194.362 50.3075C194.007 50.3075 193.67 50.2459 193.367 50.124C193.065 50.0021 192.801 49.8294 192.575 49.6057C192.349 49.3834 192.173 49.121 192.049 48.8223C191.923 48.5237 191.862 48.1956 191.862 47.8421C191.862 47.4885 191.924 47.1605 192.049 46.8618C192.173 46.5632 192.35 46.3021 192.575 46.0784C192.8 45.8548 193.065 45.6834 193.367 45.5602C193.67 45.437 194.001 45.3767 194.362 45.3767C194.723 45.3767 195.045 45.4383 195.347 45.5602C195.65 45.682 195.912 45.8548 196.136 46.0784C196.358 46.3021 196.533 46.5632 196.658 46.8618C196.784 47.1605 196.845 47.4885 196.845 47.8421C196.845 48.1956 196.782 48.5237 196.658 48.8223Z" fill="white"/>
<path d="M203.643 48.2451C203.643 48.9602 203.486 49.4825 203.172 49.8119C202.857 50.1414 202.41 50.3074 201.83 50.3074C201.251 50.3074 200.812 50.1427 200.497 49.8119C200.183 49.4825 200.026 48.9602 200.026 48.2451V44.6348H199.11V48.2813C199.11 49.2093 199.351 49.915 199.835 50.3985C200.316 50.8806 200.979 51.1229 201.822 51.1229C202.666 51.1229 203.335 50.8819 203.814 50.3985C204.293 49.9164 204.533 49.2106 204.533 48.2813V44.6348H203.644V48.2451H203.643Z" fill="white"/>
<path d="M210.347 44.9019C209.95 44.7251 209.471 44.6367 208.91 44.6367H206.409V51.0512H207.325V49.1081H208.91C209.472 49.1081 209.951 49.0184 210.347 48.8376C210.744 48.6568 211.05 48.4011 211.263 48.0676C211.477 47.7342 211.583 47.3364 211.583 46.8718C211.583 46.4071 211.476 46.008 211.263 45.6719C211.049 45.3358 210.744 45.0786 210.347 44.9019ZM210.215 47.935C209.912 48.1855 209.468 48.3113 208.882 48.3113H207.325V45.4335H208.882C209.468 45.4335 209.912 45.5594 210.215 45.8098C210.517 46.0602 210.669 46.4151 210.669 46.8731C210.669 47.3311 210.517 47.686 210.215 47.9364V47.935Z" fill="white"/>
<path d="M19.051 28.7609C18.8368 28.7033 18.6721 28.5748 18.557 28.3752C18.3 27.9025 18.1702 25.5711 18.1702 21.3782V19.253C18.1702 18.5526 18.213 18.0156 18.2987 17.6433C18.4553 16.9429 19.2932 15.3333 20.8085 12.8143C23.4978 8.3496 25.9715 4.57989 28.2324 1.50253V0.751263L28.0182 0.536999H24.8859C24.4428 1.36727 24.0921 2.0181 23.8351 2.48948L21.4537 6.76003C19.0791 10.8672 17.4701 13.6004 16.6267 14.9596L13.8157 9.33655C11.7703 5.23072 10.1399 2.58322 8.92444 1.39539C8.33814 0.823577 7.67285 0.357553 6.92859 0C5.94338 0.286578 3.70391 0.772689 0.214176 1.45967L0 1.69536V2.89792L0.235594 3.13361C1.07891 3.13361 1.61569 3.18048 1.84459 3.27288C2.07349 3.36662 2.51657 3.74828 3.17516 4.42053C4.53384 5.80923 6.35701 8.442 8.64601 12.3188C10.8908 16.1247 12.0139 18.2995 12.0139 18.8432V21.3755C12.0139 25.5684 11.8854 27.8998 11.6284 28.3726C11.5133 28.5734 11.35 28.702 11.1345 28.7582C10.7771 28.8587 9.89761 28.9511 8.49609 29.0368L8.28192 29.2524V30.7121L8.47467 30.9049C9.81863 30.8192 12.022 30.7763 15.082 30.7763C18.142 30.7763 20.2744 30.8192 21.6893 30.9049L21.9035 30.6906V29.2524L21.6893 29.0368C20.2878 28.9511 19.4084 28.8587 19.051 28.7582V28.7609Z" fill="white"/>
<path d="M48.4872 26.1405C48.8874 27.1851 49.0882 27.8573 49.0882 28.1586C49.0882 28.6742 48.6947 28.9527 47.9076 28.9956L46.0416 29.1027L45.8274 29.3384V30.691L46.0201 30.9052C48.2797 30.8195 50.7253 30.7767 53.357 30.7767C54.0143 30.7767 55.9311 30.8195 59.1063 30.9052L59.299 30.691V29.317L59.1063 29.0813C58.2188 29.0813 57.5401 28.9956 57.0676 28.8242C56.7102 28.6956 56.31 28.1225 55.8655 27.1074L44.4968 0.341797H41.4502C40.6055 2.53131 39.9764 4.16909 39.5627 5.25648L33.9634 19.272C31.7748 24.7384 30.5125 27.7221 30.1765 28.2216C29.8405 28.7224 28.9356 29.0157 27.4631 29.1014L27.2275 29.3156V30.711L27.4417 30.9039C29.7588 30.8182 31.2099 30.7753 31.7975 30.7753C32.5552 30.7753 34.2579 30.8182 36.9043 30.9039L37.1185 30.6896V29.3156L36.9043 29.1014C35.8173 29.0438 35.0878 28.9876 34.7157 28.93C34.0437 28.8295 33.7077 28.5081 33.7077 27.9644C33.7077 27.4636 34.0651 26.2195 34.7799 24.2296L35.7236 21.6115C37.9256 21.5834 39.5855 21.5687 40.7005 21.5687C42.7606 21.5687 44.7766 21.5834 46.751 21.6115L48.4885 26.1405H48.4872ZM41.2788 19.2077C39.4048 19.2077 37.8815 19.1863 36.7088 19.1435L41.1075 7.89728L45.6989 19.1435C44.5691 19.1863 43.0953 19.2077 41.2788 19.2077Z" fill="white"/>
<path d="M76.8623 0C71.5989 0 67.5001 1.43423 64.5686 4.30403C61.6357 7.17249 60.1699 11.1042 60.1699 16.0979C60.1699 20.7193 61.4429 24.4181 63.9889 27.1941C66.4198 29.8563 69.7034 31.3294 73.837 31.616C72.635 32.1597 71.0554 33.1038 69.0957 34.4496C68.0088 35.1942 67.3221 35.7017 67.0356 35.9736L66.9499 36.295L67.2926 37.2819L67.6139 37.3891C69.6164 36.1437 70.9604 35.5223 71.6471 35.5223C72.8344 35.5223 75.4942 36.1517 79.6278 37.4105C83.7186 38.6559 86.4426 39.2773 87.8026 39.2773C88.1025 38.9773 89.5616 38.0399 92.1799 36.465L92.3512 36.1651V35.0067L92.137 34.8139C90.6351 35.4714 89.5201 35.8008 88.7905 35.8008C87.7183 35.8008 86.2873 35.4861 84.5003 34.8567L81.1538 33.6756C78.0068 32.5588 75.8048 31.8945 74.5451 31.6789C75.0029 31.7084 75.4527 31.7218 75.8971 31.7218C79.4163 31.7218 82.4402 31.0375 84.9728 29.6715C87.5041 28.3056 89.4424 26.3197 90.7877 23.715C92.0888 21.1827 92.7407 18.2486 92.7407 14.9155C92.7407 11.5823 92.0393 8.74197 90.6378 6.523C87.8896 2.17478 83.2982 0 76.8623 0ZM85.0143 23.2235C83.6128 27.245 80.874 29.2551 76.798 29.2551C73.4368 29.2551 70.9122 27.932 69.2242 25.2845C67.5938 22.7227 66.7786 19.2315 66.7786 14.811C66.7786 12.3791 67.136 10.1829 67.8508 8.22238C69.2376 4.40179 72.0554 2.49216 76.3041 2.49216C79.5221 2.49216 81.9637 3.71212 83.6302 6.15205C85.2968 8.59199 86.1294 11.8863 86.1294 16.0363C86.1294 18.6972 85.7572 21.0943 85.0143 23.2262V23.2235Z" fill="white"/>
<path d="M103.294 30.7757C106.283 30.7757 108.493 30.8186 109.924 30.9043L110.117 30.69V29.2518L109.903 29.0362C108.443 28.9505 107.607 28.8795 107.393 28.8219C106.978 28.7067 106.734 28.4429 106.663 28.0278C106.477 26.998 106.385 24.7804 106.385 21.3736V10.0216C106.385 6.61612 106.477 4.39849 106.663 3.36734C106.734 2.95221 106.978 2.68839 107.393 2.57323C107.607 2.51564 108.443 2.44467 109.903 2.35896L110.117 2.1447V0.685025L109.903 0.492188C108.529 0.577893 106.334 0.620746 103.317 0.620746C100.299 0.620746 98.0814 0.577893 96.7093 0.492188L96.4951 0.685025V2.1447L96.7093 2.35896C98.1684 2.44467 99.005 2.51698 99.2192 2.57323C99.6341 2.68839 99.8764 2.95221 99.9487 3.36734C100.135 4.39715 100.227 6.61612 100.227 10.0216V21.3762C100.227 24.7817 100.133 26.9993 99.9487 28.0305C99.8764 28.4456 99.6341 28.7094 99.2192 28.8246C99.005 28.8822 98.1684 28.9531 96.7093 29.0388L96.4951 29.2545V30.6927L96.6879 30.907C98.1175 30.8213 100.321 30.7784 103.295 30.7784L103.294 30.7757Z" fill="white"/>
<path d="M147.04 2.1447V0.685025L146.826 0.492188C145.352 0.577893 143.694 0.620746 141.849 0.620746C140.405 0.620746 138.882 0.577893 137.279 0.492188L137.065 0.685025V2.1447L137.279 2.35896C138.738 2.44467 139.575 2.51698 139.789 2.57323C140.204 2.68839 140.447 2.95221 140.519 3.36734C140.705 4.39715 140.797 6.61612 140.797 10.0216V22.5774C133.846 14.722 127.795 7.36069 122.647 0.492188C121.374 0.577893 119.772 0.620746 117.842 0.620746C116.611 0.620746 115.317 0.577893 113.958 0.492188L113.744 0.685025V2.1447L113.958 2.35896C115.417 2.44467 116.254 2.51698 116.468 2.57323C116.883 2.68839 117.125 2.95221 117.198 3.36734C117.384 4.39715 117.476 6.61612 117.476 10.0216V21.3762C117.476 24.7817 117.382 26.9993 117.198 28.0305C117.125 28.4456 116.883 28.7094 116.468 28.8246C116.254 28.8822 115.417 28.9531 113.958 29.0388L113.744 29.2544V30.7141L113.958 30.907C115.617 30.8213 117.269 30.7784 118.914 30.7784C120.33 30.7784 121.86 30.8213 123.505 30.907L123.719 30.7141V29.2544L123.505 29.0388C122.046 28.9531 121.21 28.8822 120.995 28.8246C120.58 28.7094 120.337 28.4456 120.266 28.0305C120.08 27.0007 119.987 24.783 119.987 21.3762V7.33792C129.241 18.7421 135.784 26.5976 139.618 30.9043C140.448 31.0181 141.67 31.2123 143.287 31.4841L143.565 31.2913C143.379 29.3455 143.287 25.1607 143.287 18.7354V10.0216C143.287 6.61612 143.379 4.39849 143.565 3.36734C143.636 2.95221 143.88 2.68839 144.295 2.57323C144.509 2.51564 145.346 2.44467 146.805 2.35896L147.04 2.1447Z" fill="white"/>
<path d="M172.978 30.69C172.978 28.0572 173.134 25.6963 173.449 23.6073L173.213 23.393H171.904L171.69 23.6287L171.176 26.2896C171.048 26.9471 170.911 27.377 170.768 27.5778C170.696 27.6783 170.582 27.7573 170.425 27.8135C169.481 28.143 166.921 28.3077 162.744 28.3077H159.826C159.754 26.548 159.719 24.7308 159.719 22.856V10.0216C159.719 6.61612 159.811 4.39849 159.997 3.36734C160.068 2.95221 160.312 2.68839 160.727 2.57323C160.941 2.51564 161.778 2.44467 163.237 2.35896L163.451 2.16612V0.685025L163.237 0.492188C161.707 0.577893 159.469 0.620746 156.521 0.620746C153.574 0.620746 151.515 0.577893 150.042 0.492188L149.828 0.685025V2.1447L150.042 2.35896C151.501 2.44467 152.338 2.51698 152.552 2.57323C152.967 2.68839 153.209 2.95221 153.282 3.36734C153.468 4.39715 153.56 6.61612 153.56 10.0216V20.9035L153.496 25.7111C153.466 27.3569 153.389 28.3077 153.26 28.5661C153.175 28.7375 152.603 29.1594 151.544 29.8316L151.437 30.0887V30.69L151.651 30.9043C152.724 30.8186 154.561 30.7757 157.165 30.7757L172.762 30.9043L172.977 30.69H172.978Z" fill="white"/>
<path d="M185.807 30.9066L186.021 30.6923V29.3183L185.807 29.1041C184.72 29.0465 183.991 28.9902 183.619 28.9326C182.947 28.8322 182.611 28.5108 182.611 27.9671C182.611 27.4663 182.968 26.2222 183.684 24.2322L184.628 21.6142C186.83 21.5861 188.49 21.5713 189.605 21.5713C191.665 21.5713 193.681 21.5861 195.655 21.6142L197.393 26.1432C197.793 27.1877 197.994 27.86 197.994 28.1613C197.994 28.6769 197.6 28.9554 196.813 28.9983L194.947 29.1054L194.733 29.3411V30.6936L194.926 30.9079C197.185 30.8222 199.631 30.7793 202.263 30.7793C202.92 30.7793 204.837 30.8222 208.012 30.9079L208.205 30.6936V29.3197L208.012 29.084C207.124 29.084 206.446 28.9983 205.973 28.8269C205.616 28.6983 205.216 28.1251 204.773 27.1101L193.402 0.341797H190.356C189.512 2.53131 188.882 4.16909 188.468 5.25648L182.869 19.272C180.68 24.7384 179.418 27.7221 179.082 28.2216C178.746 28.7224 177.841 29.0157 176.367 29.1014L176.132 29.3156V30.711L176.346 30.9039C178.663 30.8182 180.114 30.7753 180.702 30.7753C181.459 30.7753 183.162 30.8182 185.809 30.9039L185.807 30.9066ZM190.012 7.89862L194.603 19.1448C193.473 19.1877 192 19.2091 190.183 19.2091C188.367 19.2091 186.786 19.1877 185.613 19.1448L190.012 7.89862Z" fill="white"/>
<path d="M239.786 29.1049C239.2 29.1049 238.742 28.9978 238.413 28.7822C237.769 28.367 236.475 26.6569 234.53 23.6532L231.226 18.5671C230.425 17.3365 229.666 16.1205 228.952 14.918C233.328 13.2869 235.516 10.5255 235.516 6.63263C235.516 5.6738 235.388 4.84353 235.129 4.14315C234.601 2.71294 233.556 1.69652 231.997 1.09525C230.839 0.651986 229.023 0.429688 226.548 0.429688C225.475 0.429688 223.858 0.47254 221.699 0.558246C220.612 0.601099 219.196 0.622525 217.45 0.622525C214.447 0.622525 212.245 0.579672 210.843 0.493967L210.629 0.686804V2.14648L210.843 2.36074C212.302 2.44645 213.139 2.51876 213.353 2.57501C213.768 2.69017 214.01 2.95398 214.082 3.36912C214.269 4.39893 214.361 6.6179 214.361 10.0234V21.378C214.361 24.7835 214.267 27.0011 214.082 28.0322C214.01 28.4474 213.768 28.7112 213.353 28.8264C213.139 28.8839 212.302 28.9549 210.843 29.0406L210.629 29.2562V30.7159L210.843 30.9087C212.174 30.823 214.376 30.7802 217.45 30.7802C220.525 30.7802 222.628 30.823 224.059 30.9087L224.252 30.6945V29.2562L224.038 29.0406C222.579 28.9549 221.742 28.8839 221.528 28.8264C221.113 28.7112 220.869 28.4474 220.798 28.0322C220.612 27.0024 220.52 24.7848 220.52 21.378V10.1533C220.52 6.77592 220.591 4.38688 220.734 2.98479C221.391 2.87096 222.078 2.81337 222.794 2.81337C224.439 2.81337 225.691 3.01425 226.549 3.41465C228.351 4.25966 229.253 5.89074 229.253 8.30791C229.253 9.69527 228.945 10.8911 228.331 11.8928C227.715 12.8945 227.043 13.5962 226.313 13.9966C225.511 14.4399 224.411 14.6622 223.01 14.6622C222.852 14.6622 222.609 14.6555 222.28 14.6407L222.044 15.3706C222.588 15.7991 223.01 16.237 223.309 16.6803L225.691 20.308L231.012 29.1933C231.498 29.9954 231.769 30.5673 231.827 30.9101C233.415 30.8244 234.574 30.7815 235.302 30.7815C235.788 30.7815 237.011 30.8177 238.971 30.8887C239.414 30.9034 239.686 30.9101 239.786 30.9101L240 30.6958V29.3218L239.786 29.1076V29.1049Z" fill="white"/>
</svg>
